<?xml version="1.0" encoding="utf-8"?>
<!-- Generator: Adobe Illustrator 27.3.1, SVG Export Plug-In . SVG Version: 6.00 Build 0)  -->
<svg version="1.1" id="Layer_1" xmlns="http://www.w3.org/2000/svg" xmlns:xlink="http://www.w3.org/1999/xlink" x="0px" y="0px"
	 viewBox="0 0 550 405.39" style="enable-background:new 0 0 550 405.39;" xml:space="preserve">
<style type="text/css">
	.st0{fill:#FFFFFF;}
	.st1{fill:#861E02;}
	.st2{fill:#FC8500;}
	.st3{fill:#052E7F;}
	.st4{fill:#009FF3;}
</style>
<path d="M398.97,328.27c-111.36,2.82-229.45,0.54-341.08,0.49l0.01-1.67c0.17-17.37-0.88-34.73-1.16-52.09
	c0.02-11.17-0.12-74.3-0.02-86.82l0.07-138.91v-2.78h2.78c89.93,0.09,244.62,0.16,334.35,0.4c3.34,0,6.29,2.94,6.26,6.3v0.33
	l-0.01,4.83C400.37,128.07,399.15,257.37,398.97,328.27L398.97,328.27z M396.62,325.92c-0.68-73.07-0.94-200.58-1.2-272.39
	c0.1-0.94-0.62-1.86-1.58-1.85c-0.01,0-0.05,0-0.11,0h-0.6c-89.24,0.15-244.17,0.39-333.56,0.39l2.78-2.78
	c0.04,46.04,0.08,163.85,0.11,208.36c0.32,23.16-1.37,46.29-1.23,69.45l-1.67-1.67C170.49,325.3,285.65,323.17,396.62,325.92
	L396.62,325.92z"/>
<path d="M397.79,80.91c-55.49,1.9-113.45,1.41-169.12,1.35c-54.57-0.21-114.73-0.54-169.12-1.35v-3.04
	c68.59-1,142.65-1.33,211.4-1.43c42.29-0.07,84.56-0.01,126.84,1.43V80.91L397.79,80.91z"/>
<circle cx="86.05" cy="63.82" r="6.38"/>
<circle cx="103.61" cy="63.82" r="6.38"/>
<circle cx="121.67" cy="63.82" r="6.38"/>
<circle cx="93.14" cy="102.43" r="5.67"/>
<circle cx="93.14" cy="120.67" r="5.67"/>
<circle cx="93.14" cy="139.86" r="5.67"/>
<circle cx="93.88" cy="159.09" r="5.67"/>
<circle cx="94.47" cy="177.69" r="5.67"/>
<path d="M170.88,104.3H106.7c-1.5,0-2.71-1.21-2.71-2.71s1.21-2.71,2.71-2.71h64.18c1.5,0,2.71,1.21,2.71,2.71
	S172.37,104.3,170.88,104.3z"/>
<path d="M244.7,124.6H106.69c-1.5,0-2.71-1.21-2.71-2.71s1.21-2.71,2.71-2.71H244.7c1.5,0,2.71,1.21,2.71,2.71
	S246.2,124.6,244.7,124.6z"/>
<path d="M159.26,143.2H106.7c-1.5,0-2.71-1.21-2.71-2.71s1.21-2.71,2.71-2.71h52.56c1.5,0,2.71,1.21,2.71,2.71
	S160.75,143.2,159.26,143.2z"/>
<path d="M221.34,161.8H108.47c-1.5,0-2.71-1.21-2.71-2.71s1.21-2.71,2.71-2.71h112.87c1.5,0,2.71,1.21,2.71,2.71
	S222.83,161.8,221.34,161.8z"/>
<path d="M175.7,227.55h-67.23c-1.5,0-2.71-1.21-2.71-2.71s1.21-2.71,2.71-2.71h67.23c1.5,0,2.71,1.21,2.71,2.71
	S177.19,227.55,175.7,227.55z"/>
<path d="M132.98,246.79h-24.51c-1.5,0-2.71-1.21-2.71-2.71s1.21-2.71,2.71-2.71h24.51c1.5,0,2.71,1.21,2.71,2.71
	S134.47,246.79,132.98,246.79z"/>
<path d="M183.82,246.79h-24.51c-1.5,0-2.71-1.21-2.71-2.71s1.21-2.71,2.71-2.71h24.51c1.5,0,2.71,1.21,2.71,2.71
	S185.31,246.79,183.82,246.79z"/>
<path d="M280.97,246.79h-84.98c-1.5,0-2.71-1.21-2.71-2.71s1.21-2.71,2.71-2.71h84.98c1.5,0,2.71,1.21,2.71,2.71
	S282.47,246.79,280.97,246.79z"/>
<path d="M235.91,269.37h-36.7c-1.5,0-2.71-1.21-2.71-2.71s1.21-2.71,2.71-2.71h36.7c1.5,0,2.71,1.21,2.71,2.71
	S237.4,269.37,235.91,269.37z"/>
<path d="M191.15,269.37h-82.69c-1.5,0-2.71-1.21-2.71-2.71s1.21-2.71,2.71-2.71h82.69c1.5,0,2.71,1.21,2.71,2.71
	S192.65,269.37,191.15,269.37z"/>
<path d="M146.78,180.4h-39.5c-1.5,0-2.71-1.21-2.71-2.71s1.21-2.71,2.71-2.71h39.5c1.5,0,2.71,1.21,2.71,2.71
	C149.49,179.19,148.28,180.4,146.78,180.4z"/>
<path d="M207.04,227.55h-23.23c-1.5,0-2.71-1.21-2.71-2.71s1.21-2.71,2.71-2.71h23.23c1.5,0,2.71,1.21,2.71,2.71
	S208.54,227.55,207.04,227.55z"/>
<path d="M198.82,200.95h-91.53c-1.5,0-2.71-1.21-2.71-2.71s1.21-2.71,2.71-2.71h91.53c1.5,0,2.71,1.21,2.71,2.71
	S200.31,200.95,198.82,200.95z"/>
<path d="M211.46,104.3H178.9c-1.5,0-2.71-1.21-2.71-2.71s1.21-2.71,2.71-2.71h32.56c1.5,0,2.71,1.21,2.71,2.71
	S212.96,104.3,211.46,104.3z"/>
<path d="M230,143.2h-62.37c-1.5,0-2.71-1.21-2.71-2.71s1.21-2.71,2.71-2.71H230c1.5,0,2.71,1.21,2.71,2.71S231.5,143.2,230,143.2z"
	/>
<path d="M177.47,180.4h-21.39c-1.5,0-2.71-1.21-2.71-2.71s1.21-2.71,2.71-2.71h21.39c1.5,0,2.71,1.21,2.71,2.71
	C180.18,179.19,178.97,180.4,177.47,180.4z"/>
<path d="M235.91,181.43h-21.39c-1.5,0-2.71-1.21-2.71-2.71s1.21-2.71,2.71-2.71h21.39c1.5,0,2.71,1.21,2.71,2.71
	S237.4,181.43,235.91,181.43z"/>
<path d="M244.7,200.95h-21.39c-1.5,0-2.71-1.21-2.71-2.71s1.21-2.71,2.71-2.71h21.39c1.5,0,2.71,1.21,2.71,2.71
	S246.2,200.95,244.7,200.95z"/>
<path d="M311.72,181.43h-66.21c-1.5,0-2.71-1.21-2.71-2.71s1.21-2.71,2.71-2.71h66.21c1.5,0,2.71,1.21,2.71,2.71
	S313.22,181.43,311.72,181.43z"/>
<path d="M272.58,162.31H230c-1.5,0-2.71-1.21-2.71-2.71s1.21-2.71,2.71-2.71h42.57c1.5,0,2.71,1.21,2.71,2.71
	S274.07,162.31,272.58,162.31z"/>
<path d="M274.62,104.3h-56.16c-1.5,0-2.71-1.21-2.71-2.71s1.21-2.71,2.71-2.71h56.16c1.5,0,2.71,1.21,2.71,2.71
	S276.11,104.3,274.62,104.3z"/>
<path d="M303.35,104.3H282.8c-1.5,0-2.71-1.21-2.71-2.71s1.21-2.71,2.71-2.71h20.55c1.5,0,2.71,1.21,2.71,2.71
	S304.85,104.3,303.35,104.3z"/>
<path d="M379.4,104.3h-67.68c-1.5,0-2.71-1.21-2.71-2.71s1.21-2.71,2.71-2.71h67.68c1.5,0,2.71,1.21,2.71,2.71
	S380.9,104.3,379.4,104.3z"/>
<path d="M333.61,197.13c10.99-0.31,21.98-0.45,32.97-0.41c23.48,0.08,46.97,0.96,70.39,2.65c2.35,0.17,4.79,0.37,6.82,1.57
	c4.73,2.78,5.17,9.33,5.02,14.82c-0.31,11.43-0.72,22.85-1.24,34.27c-0.23,5.04-0.86,10.16-0.98,15.17
	c-0.1,4.08,1.13,8.79-2.71,11.7c-2.06,1.56-4.82,1.69-7.4,1.75c-35.35,0.87-70.71,1.73-106.06,2.6c-2.49,0.06-5.08,0.1-7.32-0.98
	c-2.99-1.45-4.78-4.7-5.33-7.97c-1.08-6.42-0.11-13.96-0.28-20.59c-0.17-6.83-0.34-13.67-0.52-20.5
	c-0.21-8.14-0.41-16.27-0.62-24.41c-0.22-8.64,9.45-9.43,15.51-9.61C332.45,197.17,333.03,197.15,333.61,197.13z"/>
<path class="st0" d="M400.81,224.52c7.08,3.32,13.94,7.09,20.68,11.04c2.22,1.36,4.38,2.82,6.38,4.58l0.47,0.41
	c0.96,0.85,1.06,2.32,0.21,3.28c-0.21,0.24-0.47,0.43-0.73,0.56c-2.39,1.15-4.74,2.37-7.09,3.59c-4.7,2.44-9.36,4.96-13.97,7.57
	l-3.45,1.97c-1.14,0.68-2.29,1.33-3.42,2.03c-1.15,0.7-2.65,0.34-3.36-0.81c-0.7-1.15-0.34-2.65,0.81-3.36
	c1.26-0.64,2.53-1.25,3.79-1.88l3.53-1.82c7.05-3.68,14.02-7.5,20.84-11.57l-0.06,4.25c-3.76-1.28-7.16-3.17-10.54-5.18
	c-3.38-1.97-6.71-4-10.01-6.1c-2.2-1.4-4.38-2.84-6.51-4.35C395.99,227,398.12,223.31,400.81,224.52L400.81,224.52z"/>
<path class="st0" d="M396.49,213.91c-6.76,13.66-13.34,27.91-19.63,41.79c-0.92,2.04-2.22,5.01-3.04,7.07
	c-0.96,2.38-1.87,4.78-2.65,7.25c-0.63,2.01-2.78,3.13-4.79,2.5c-2.34-0.7-3.4-3.55-2.12-5.61c2-3.32,3.7-6.76,5.37-10.24
	c2.67-5.79,5.3-11.73,7.87-17.55c4.01-9.13,8.33-19.11,12.08-28.32C391.73,206.05,398.62,209.11,396.49,213.91L396.49,213.91z"/>
<path class="st0" d="M359.94,259.51c-7.08-3.32-13.94-7.09-20.68-11.04c-2.22-1.36-4.38-2.82-6.38-4.58l-0.47-0.41
	c-0.96-0.85-1.06-2.32-0.21-3.28c0.21-0.24,0.47-0.43,0.73-0.56c2.39-1.15,4.74-2.37,7.09-3.59c4.7-2.44,9.36-4.96,13.97-7.57
	l3.45-1.97c1.14-0.68,2.29-1.33,3.42-2.03c1.15-0.7,2.65-0.34,3.36,0.81c0.7,1.15,0.34,2.65-0.81,3.36
	c-1.26,0.64-2.53,1.25-3.79,1.88l-3.53,1.82c-7.05,3.68-14.02,7.5-20.84,11.57l0.06-4.25c3.76,1.28,7.16,3.17,10.54,5.18
	c3.38,1.97,6.71,4,10.01,6.1c2.2,1.4,4.38,2.84,6.51,4.35C364.76,257.03,362.63,260.71,359.94,259.51L359.94,259.51z"/>
<circle cx="93.88" cy="197.3" r="5.67"/>
<circle cx="93.88" cy="224.01" r="5.67"/>
<circle cx="94.47" cy="243.49" r="5.67"/>
<circle cx="95.06" cy="266.66" r="5.67"/>
<g>
	<path class="st1" d="M117.66,215.51H41.68c-6.59,0-11.92-5.34-11.92-11.92v-76c0-6.59,5.34-11.92,11.92-11.92h75.99
		c6.59,0,11.92,5.34,11.92,11.92v75.99C129.58,210.17,124.25,215.51,117.66,215.51z"/>
	<g>
		<path class="st2" d="M79.56,174.88H66.43l-2.75,7.89h-6.12l12.8-33.89h5.28l12.83,33.89h-6.15L79.56,174.88z M68.09,170.13h9.82
			L73,156.07L68.09,170.13z"/>
		<path class="st2" d="M91.79,151.04c0-0.87,0.28-1.59,0.83-2.16s1.34-0.86,2.36-0.86s1.82,0.29,2.37,0.86
			c0.56,0.57,0.84,1.3,0.84,2.16c0,0.85-0.28,1.56-0.84,2.13c-0.56,0.57-1.35,0.85-2.37,0.85s-1.81-0.28-2.36-0.85
			C92.06,152.6,91.79,151.9,91.79,151.04z M97.79,182.77h-5.66v-25.19h5.66V182.77z"/>
	</g>
</g>
<g>
	<path class="st3" d="M238.19,379.6h-73.32c-7.32,0-13.26-5.94-13.26-13.26v-73.32c0-7.32,5.94-13.26,13.26-13.26h73.32
		c7.32,0,13.26,5.94,13.26,13.26v73.32C251.45,373.66,245.51,379.6,238.19,379.6z"/>
	<g>
		<path class="st4" d="M183.86,334.29v12.57h-5.89v-33.89h12.97c3.79,0,6.79,0.99,9.02,2.96c2.23,1.97,3.34,4.58,3.34,7.83
			c0,3.32-1.09,5.91-3.27,7.76c-2.18,1.85-5.23,2.77-9.16,2.77H183.86z M183.86,329.55h7.08c2.1,0,3.69-0.49,4.8-1.48
			c1.1-0.99,1.65-2.41,1.65-4.27c0-1.83-0.56-3.29-1.68-4.39c-1.12-1.09-2.65-1.66-4.61-1.69h-7.24V329.55z"/>
		<path class="st4" d="M222.01,340.02c0-1.01-0.42-1.78-1.25-2.3c-0.83-0.53-2.21-0.99-4.13-1.4c-1.92-0.4-3.53-0.92-4.82-1.54
			c-2.82-1.37-4.24-3.34-4.24-5.94c0-2.17,0.92-3.99,2.75-5.45c1.83-1.46,4.16-2.19,6.98-2.19c3.01,0,5.44,0.74,7.3,2.23
			c1.85,1.49,2.78,3.42,2.78,5.8h-5.66c0-1.09-0.4-1.99-1.21-2.71c-0.81-0.72-1.88-1.08-3.21-1.08c-1.24,0-2.25,0.29-3.04,0.86
			c-0.78,0.57-1.18,1.34-1.18,2.3c0,0.87,0.36,1.54,1.09,2.03c0.73,0.48,2.2,0.97,4.42,1.45c2.22,0.49,3.96,1.07,5.23,1.75
			c1.26,0.68,2.2,1.49,2.82,2.43c0.61,0.95,0.92,2.1,0.92,3.45c0,2.27-0.94,4.1-2.82,5.51c-1.88,1.4-4.34,2.11-7.38,2.11
			c-2.06,0-3.9-0.37-5.52-1.12c-1.61-0.74-2.87-1.77-3.77-3.07c-0.9-1.3-1.35-2.71-1.35-4.21h5.49c0.08,1.33,0.58,2.36,1.51,3.08
			s2.16,1.08,3.7,1.08c1.49,0,2.62-0.28,3.4-0.85C221.62,341.68,222.01,340.94,222.01,340.02z"/>
	</g>
</g>
</svg>
