<?xml version="1.0" encoding="utf-8"?>
<!-- Generator: Adobe Illustrator 27.3.1, SVG Export Plug-In . SVG Version: 6.00 Build 0)  -->
<svg version="1.1" id="Layer_1" xmlns="http://www.w3.org/2000/svg" xmlns:xlink="http://www.w3.org/1999/xlink" x="0px" y="0px"
	 viewBox="0 0 550 405.39" style="enable-background:new 0 0 550 405.39;" xml:space="preserve">
<style type="text/css">
	.st0{fill:#231F20;}
	.st1{fill:#FFFFFF;}
	.st2{fill:#2580AF;}
	.st3{fill:#FFD520;}
</style>
<path d="M398.97,328.27c-111.36,2.82-229.45,0.54-341.08,0.49c0,0,0.01-1.67,0.01-1.67c0.17-17.37-0.88-34.73-1.16-52.09
	c0.02-11.17-0.12-74.3-0.02-86.82c0,0,0.07-138.91,0.07-138.91s0-2.78,0-2.78s2.78,0,2.78,0c89.93,0.09,244.62,0.16,334.35,0.4
	c3.34,0,6.29,2.94,6.26,6.3c0,0,0,0.33,0,0.33s-0.01,4.83-0.01,4.83C400.37,128.07,399.15,257.37,398.97,328.27L398.97,328.27z
	 M396.62,325.92c-0.68-73.07-0.94-200.58-1.2-272.39c0.1-0.94-0.62-1.86-1.58-1.85c-0.01,0-0.05,0-0.11,0c0,0-0.6,0-0.6,0
	c-89.24,0.15-244.17,0.39-333.56,0.39c0,0,2.78-2.78,2.78-2.78c0.04,46.04,0.08,163.85,0.11,208.36
	c0.32,23.16-1.37,46.29-1.23,69.45c0,0-1.67-1.67-1.67-1.67C170.49,325.3,285.65,323.17,396.62,325.92L396.62,325.92z"/>
<path d="M397.79,80.91c-55.49,1.9-113.45,1.41-169.12,1.35c-54.57-0.21-114.73-0.54-169.12-1.35c0,0,0-3.04,0-3.04
	c68.59-1,142.65-1.33,211.4-1.43c42.29-0.07,84.56-0.01,126.84,1.43C397.79,77.87,397.79,80.91,397.79,80.91L397.79,80.91z"/>
<circle cx="86.05" cy="63.82" r="6.38"/>
<circle cx="103.61" cy="63.82" r="6.38"/>
<circle cx="121.67" cy="63.82" r="6.38"/>
<circle cx="93.14" cy="102.43" r="5.67"/>
<circle cx="93.14" cy="120.67" r="5.67"/>
<circle cx="93.14" cy="139.86" r="5.67"/>
<circle cx="93.88" cy="159.09" r="5.67"/>
<circle cx="94.47" cy="177.69" r="5.67"/>
<path d="M170.88,104.3h-64.18c-1.5,0-2.71-1.21-2.71-2.71s1.21-2.71,2.71-2.71h64.18c1.5,0,2.71,1.21,2.71,2.71
	S172.37,104.3,170.88,104.3z"/>
<path d="M244.7,124.6H106.69c-1.5,0-2.71-1.21-2.71-2.71c0-1.5,1.21-2.71,2.71-2.71H244.7c1.5,0,2.71,1.21,2.71,2.71
	C247.41,123.39,246.2,124.6,244.7,124.6z"/>
<path d="M159.26,143.2h-52.56c-1.5,0-2.71-1.21-2.71-2.71s1.21-2.71,2.71-2.71h52.56c1.5,0,2.71,1.21,2.71,2.71
	S160.75,143.2,159.26,143.2z"/>
<path d="M221.34,161.8H108.47c-1.5,0-2.71-1.21-2.71-2.71s1.21-2.71,2.71-2.71h112.87c1.5,0,2.71,1.21,2.71,2.71
	S222.83,161.8,221.34,161.8z"/>
<path d="M175.7,227.55h-67.23c-1.5,0-2.71-1.21-2.71-2.71s1.21-2.71,2.71-2.71h67.23c1.5,0,2.71,1.21,2.71,2.71
	S177.19,227.55,175.7,227.55z"/>
<path d="M132.98,246.79h-24.51c-1.5,0-2.71-1.21-2.71-2.71s1.21-2.71,2.71-2.71h24.51c1.5,0,2.71,1.21,2.71,2.71
	S134.47,246.79,132.98,246.79z"/>
<path d="M183.82,246.79h-24.51c-1.5,0-2.71-1.21-2.71-2.71s1.21-2.71,2.71-2.71h24.51c1.5,0,2.71,1.21,2.71,2.71
	S185.31,246.79,183.82,246.79z"/>
<path d="M280.97,246.79h-84.98c-1.5,0-2.71-1.21-2.71-2.71s1.21-2.71,2.71-2.71h84.98c1.5,0,2.71,1.21,2.71,2.71
	S282.47,246.79,280.97,246.79z"/>
<path d="M235.91,269.37h-36.7c-1.5,0-2.71-1.21-2.71-2.71s1.21-2.71,2.71-2.71h36.7c1.5,0,2.71,1.21,2.71,2.71
	S237.4,269.37,235.91,269.37z"/>
<path d="M191.15,269.37h-82.69c-1.5,0-2.71-1.21-2.71-2.71s1.21-2.71,2.71-2.71h82.69c1.5,0,2.71,1.21,2.71,2.71
	S192.65,269.37,191.15,269.37z"/>
<path d="M146.78,180.4h-39.5c-1.5,0-2.71-1.21-2.71-2.71c0-1.5,1.21-2.71,2.71-2.71h39.5c1.5,0,2.71,1.21,2.71,2.71
	C149.49,179.19,148.28,180.4,146.78,180.4z"/>
<path d="M207.04,227.55h-23.23c-1.5,0-2.71-1.21-2.71-2.71s1.21-2.71,2.71-2.71h23.23c1.5,0,2.71,1.21,2.71,2.71
	S208.54,227.55,207.04,227.55z"/>
<path d="M198.82,200.95h-91.53c-1.5,0-2.71-1.21-2.71-2.71s1.21-2.71,2.71-2.71h91.53c1.5,0,2.71,1.21,2.71,2.71
	S200.31,200.95,198.82,200.95z"/>
<path d="M211.46,104.3h-32.56c-1.5,0-2.71-1.21-2.71-2.71s1.21-2.71,2.71-2.71h32.56c1.5,0,2.71,1.21,2.71,2.71
	S212.96,104.3,211.46,104.3z"/>
<path d="M230,143.2h-62.37c-1.5,0-2.71-1.21-2.71-2.71s1.21-2.71,2.71-2.71H230c1.5,0,2.71,1.21,2.71,2.71S231.5,143.2,230,143.2z"
	/>
<path d="M177.47,180.4h-21.39c-1.5,0-2.71-1.21-2.71-2.71c0-1.5,1.21-2.71,2.71-2.71h21.39c1.5,0,2.71,1.21,2.71,2.71
	C180.18,179.19,178.97,180.4,177.47,180.4z"/>
<path d="M235.91,181.43h-21.39c-1.5,0-2.71-1.21-2.71-2.71s1.21-2.71,2.71-2.71h21.39c1.5,0,2.71,1.21,2.71,2.71
	S237.4,181.43,235.91,181.43z"/>
<path d="M244.7,200.95h-21.39c-1.5,0-2.71-1.21-2.71-2.71s1.21-2.71,2.71-2.71h21.39c1.5,0,2.71,1.21,2.71,2.71
	S246.2,200.95,244.7,200.95z"/>
<path d="M311.72,181.43h-66.21c-1.5,0-2.71-1.21-2.71-2.71s1.21-2.71,2.71-2.71h66.21c1.5,0,2.71,1.21,2.71,2.71
	S313.22,181.43,311.72,181.43z"/>
<path d="M272.58,162.31H230c-1.5,0-2.71-1.21-2.71-2.71s1.21-2.71,2.71-2.71h42.57c1.5,0,2.71,1.21,2.71,2.71
	S274.07,162.31,272.58,162.31z"/>
<path d="M274.62,104.3h-56.16c-1.5,0-2.71-1.21-2.71-2.71s1.21-2.71,2.71-2.71h56.16c1.5,0,2.71,1.21,2.71,2.71
	S276.11,104.3,274.62,104.3z"/>
<path d="M303.35,104.3H282.8c-1.5,0-2.71-1.21-2.71-2.71s1.21-2.71,2.71-2.71h20.55c1.5,0,2.71,1.21,2.71,2.71
	S304.85,104.3,303.35,104.3z"/>
<path d="M379.4,104.3h-67.68c-1.5,0-2.71-1.21-2.71-2.71s1.21-2.71,2.71-2.71h67.68c1.5,0,2.71,1.21,2.71,2.71
	S380.9,104.3,379.4,104.3z"/>
<path class="st0" d="M428.33,234.19c-5.83,0-10.4-2.77-13.22-8.17c-4.38-8.36-3.72-22.52,1.59-34.17c-3.52,0.22-7.21,1.1-11.04,2.64
	c-9.1,3.64-15.68,9.8-15.75,9.87l-1.49-1.57c0.28-0.26,6.9-6.47,16.37-10.28c4.47-1.8,8.82-2.74,12.97-2.83
	c2.5-4.8,5.84-9.05,9.98-12.11c16.36-12.08,37.47-9.51,51.43-7.81c3.77,0.46,7.02,0.85,9.4,0.85c1.66,0,3.34,0.06,5.12,0.13
	c6.29,0.24,13.42,0.51,20.66-2.35c3.99-1.58,9.43-3.73,12.42-8.34c3.29-5.05,3.61-13.21,0.87-21.82
	c-3.33-10.45-10.14-18.82-17.76-21.84c-9.31-3.69-17.52,1.62-26.21,7.25c-9.05,5.86-18.42,11.92-30.29,9.33
	c-11.89-2.59-17.1-12.1-23.12-23.11c-6.28-11.47-13.39-24.47-29.77-34.88c-20.84-13.26-43.23-13.38-51.88-12.82
	c-19.59,1.27-30.23,13.84-41.51,27.14c-10.22,12.06-20.79,24.53-38.62,28.33c-12.75,2.71-20.49-1.52-27.96-5.62
	c-6.73-3.69-13.09-7.18-22.79-5.01c-16.85,3.77-24.42,18.54-33.18,35.64c-7.18,14.02-15.32,29.91-30.14,41.48
	c-10.84,8.46-24.37,13.85-40.22,16.02c-20.16,2.75-44.67,0.41-72.88-6.97l0.55-2.1c49.77,13.02,87.18,10.1,111.21-8.66
	c14.43-11.27,22.46-26.94,29.54-40.76c8.64-16.86,16.79-32.78,34.64-36.77c10.5-2.34,17.52,1.5,24.3,5.22
	c7.13,3.91,14.5,7.95,26.47,5.4c17.1-3.64,27.43-15.82,37.41-27.61c11.07-13.06,22.52-26.57,43.02-27.9
	c8.87-0.58,31.81-0.45,53.19,13.15c16.84,10.72,24.42,24.55,30.5,35.67c6.01,10.98,10.75,19.65,21.68,22.03
	c10.99,2.4,19.97-3.41,28.65-9.03c9.17-5.94,17.84-11.55,28.19-7.44c8.22,3.26,15.51,12.15,19.03,23.2
	c2.94,9.22,2.52,18.06-1.12,23.65c-3.37,5.19-9.42,7.58-13.42,9.17c-7.68,3.04-15.05,2.76-21.56,2.51
	c-1.76-0.07-3.42-0.13-5.04-0.13c-2.51,0-5.82-0.4-9.66-0.87c-13.62-1.66-34.21-4.16-49.88,7.4c-3.4,2.51-6.41,6.1-8.81,10.41
	c6.68,0.41,12.82,3.09,18.18,8.02c0.53,0.44,13.89,11.77,11.88,22.5c-1.02,5.45-5.78,9.67-14.16,12.52
	C433.34,233.72,430.72,234.19,428.33,234.19z M419.13,191.8c-1.42,2.92-2.57,6.11-3.4,9.5c-2.23,9.05-1.74,17.92,1.29,23.72
	c3.48,6.65,9.84,8.62,18.4,5.7c7.58-2.58,11.86-6.24,12.73-10.87c1.77-9.5-11.05-20.37-11.18-20.48
	C431.65,194.48,425.68,191.96,419.13,191.8z"/>
<path d="M333.61,197.13c10.99-0.31,21.98-0.45,32.97-0.41c23.48,0.08,46.97,0.96,70.39,2.65c2.35,0.17,4.79,0.37,6.82,1.57
	c4.73,2.78,5.17,9.33,5.02,14.82c-0.31,11.43-0.72,22.85-1.24,34.27c-0.23,5.04-0.86,10.16-0.98,15.17
	c-0.1,4.08,1.13,8.79-2.71,11.7c-2.06,1.56-4.82,1.69-7.4,1.75c-35.35,0.87-70.71,1.73-106.06,2.6c-2.49,0.06-5.08,0.1-7.32-0.98
	c-2.99-1.45-4.78-4.7-5.33-7.97c-1.08-6.42-0.11-13.96-0.28-20.59c-0.17-6.83-0.34-13.67-0.52-20.5
	c-0.21-8.14-0.41-16.27-0.62-24.41c-0.22-8.64,9.45-9.43,15.51-9.61C332.45,197.17,333.03,197.15,333.61,197.13z"/>
<path class="st1" d="M400.81,224.52c7.08,3.32,13.94,7.09,20.68,11.04c2.22,1.36,4.38,2.82,6.38,4.58c0,0,0.47,0.41,0.47,0.41
	c0.96,0.85,1.06,2.32,0.21,3.28c-0.21,0.24-0.47,0.43-0.73,0.56c-2.39,1.15-4.74,2.37-7.09,3.59c-4.7,2.44-9.36,4.96-13.97,7.57
	c0,0-3.45,1.97-3.45,1.97c-1.14,0.68-2.29,1.33-3.42,2.03c-1.15,0.7-2.65,0.34-3.36-0.81c-0.7-1.15-0.34-2.65,0.81-3.36
	c1.26-0.64,2.53-1.25,3.79-1.88c0,0,3.53-1.82,3.53-1.82c7.05-3.68,14.02-7.5,20.84-11.57c0,0-0.06,4.25-0.06,4.25
	c-3.76-1.28-7.16-3.17-10.54-5.18c-3.38-1.97-6.71-4-10.01-6.1c-2.2-1.4-4.38-2.84-6.51-4.35
	C395.99,227,398.12,223.31,400.81,224.52L400.81,224.52z"/>
<path class="st1" d="M396.49,213.91c-6.76,13.66-13.34,27.91-19.63,41.79c-0.92,2.04-2.22,5.01-3.04,7.07
	c-0.96,2.38-1.87,4.78-2.65,7.25c-0.63,2.01-2.78,3.13-4.79,2.5c-2.34-0.7-3.4-3.55-2.12-5.61c2-3.32,3.7-6.76,5.37-10.24
	c2.67-5.79,5.3-11.73,7.87-17.55c4.01-9.13,8.33-19.11,12.08-28.32C391.73,206.05,398.62,209.11,396.49,213.91L396.49,213.91z"/>
<path class="st1" d="M359.94,259.51c-7.08-3.32-13.94-7.09-20.68-11.04c-2.22-1.36-4.38-2.82-6.38-4.58l-0.47-0.41
	c-0.96-0.85-1.06-2.32-0.21-3.28c0.21-0.24,0.47-0.43,0.73-0.56c2.39-1.15,4.74-2.37,7.09-3.59c4.7-2.44,9.36-4.96,13.97-7.57
	c0,0,3.45-1.97,3.45-1.97c1.14-0.68,2.29-1.33,3.42-2.03c1.15-0.7,2.65-0.34,3.36,0.81c0.7,1.15,0.34,2.65-0.81,3.36
	c-1.26,0.64-2.53,1.25-3.79,1.88c0,0-3.53,1.82-3.53,1.82c-7.05,3.68-14.02,7.5-20.84,11.57c0,0,0.06-4.25,0.06-4.25
	c3.76,1.28,7.16,3.17,10.54,5.18c3.38,1.97,6.71,4,10.01,6.1c2.2,1.4,4.38,2.84,6.51,4.35
	C364.76,257.03,362.63,260.71,359.94,259.51L359.94,259.51z"/>
<circle cx="93.88" cy="197.3" r="5.67"/>
<circle cx="93.88" cy="224.01" r="5.67"/>
<circle cx="94.47" cy="243.49" r="5.67"/>
<circle cx="95.06" cy="266.66" r="5.67"/>
<g>
	<path d="M32.85,140.81c5.99-0.24,11.98-0.34,17.98-0.32c12.81,0.06,25.61,0.73,38.39,2.01c1.28,0.13,2.61,0.28,3.72,1.19
		c2.58,2.11,2.82,7.1,2.74,11.28c-0.17,8.7-0.39,17.39-0.68,26.08c-0.13,3.83-0.47,7.73-0.53,11.54c-0.05,3.11,0.62,6.69-1.48,8.9
		c-1.12,1.19-2.63,1.28-4.04,1.33c-19.28,0.66-38.56,1.32-57.84,1.98c-1.36,0.05-2.77,0.08-3.99-0.75c-1.63-1.1-2.61-3.57-2.9-6.07
		c-0.59-4.89-0.06-10.63-0.15-15.67c-0.09-5.2-0.19-10.4-0.28-15.6c-0.11-6.19-0.22-12.38-0.34-18.57
		c-0.12-6.57,5.15-7.17,8.46-7.31C32.21,140.84,32.53,140.82,32.85,140.81z"/>
	<g>
		<path class="st1" d="M33.03,170.93c3.56,0,4.06-1.96,4.06-3.71c0-1.4-0.2-2.81-0.4-4.21c-0.2-1.4-0.4-2.76-0.4-4.16
			c0-4.61,3.01-6.57,7.27-6.57h1.05v2.76h-0.9c-2.96,0-3.96,1.61-3.96,4.31c0,1.15,0.15,2.36,0.35,3.56
			c0.2,1.25,0.35,2.46,0.35,3.81c0.05,3.21-1.35,4.82-3.61,5.42v0.1c2.26,0.55,3.66,2.26,3.61,5.47c0,1.35-0.15,2.61-0.35,3.81
			c-0.2,1.25-0.35,2.41-0.35,3.61c0,2.81,1.15,4.36,3.96,4.36h0.9v2.76h-1.05c-4.16,0-7.27-1.81-7.27-6.87c0-1.35,0.2-2.76,0.4-4.11
			c0.2-1.35,0.4-2.71,0.4-4.06c0-1.55-0.5-3.71-4.06-3.71V170.93z"/>
		<path class="st1" d="M48.48,184.02c0-1.86,1.25-3.16,3.01-3.16c1.76,0,2.96,1.3,2.96,3.16c0,1.81-1.15,3.16-3.01,3.16
			C49.68,187.18,48.48,185.83,48.48,184.02z"/>
		<path class="st1" d="M58.86,184.02c0-1.86,1.25-3.16,3.01-3.16c1.76,0,2.96,1.3,2.96,3.16c0,1.81-1.15,3.16-3.01,3.16
			C60.06,187.18,58.86,185.83,58.86,184.02z"/>
		<path class="st1" d="M82.53,173.49c-3.56,0-4.06,2.16-4.06,3.71c0,1.35,0.2,2.71,0.4,4.06c0.2,1.35,0.4,2.76,0.4,4.11
			c0,5.07-3.16,6.87-7.27,6.87h-1.05v-2.76h0.85c2.81-0.05,4.01-1.56,4.01-4.36c0-1.2-0.2-2.36-0.35-3.61
			c-0.2-1.2-0.4-2.46-0.4-3.81c0-3.21,1.4-4.92,3.61-5.47v-0.1c-2.21-0.6-3.61-2.21-3.61-5.42c0-1.35,0.2-2.56,0.4-3.81
			c0.15-1.2,0.35-2.41,0.35-3.56c0-2.71-1.05-4.26-3.96-4.31h-0.9v-2.76h1c4.26,0,7.32,1.96,7.32,6.57c0,1.4-0.2,2.76-0.4,4.16
			c-0.2,1.4-0.4,2.81-0.4,4.21c0,1.76,0.5,3.71,4.06,3.71V173.49z"/>
	</g>
</g>
<g>
	<path d="M212.66,291.02c7.19-0.31,14.38-0.45,21.57-0.41c15.36,0.08,30.73,0.96,46.05,2.65c1.54,0.17,3.13,0.37,4.46,1.57
		c3.1,2.78,3.38,9.33,3.28,14.82c-0.2,11.43-0.47,22.85-0.81,34.27c-0.15,5.04-0.56,10.16-0.64,15.17
		c-0.06,4.08,0.74,8.79-1.77,11.7c-1.34,1.56-3.16,1.69-4.84,1.75c-23.13,0.87-46.26,1.73-69.39,2.6c-1.63,0.06-3.32,0.1-4.79-0.98
		c-1.96-1.45-3.13-4.7-3.48-7.97c-0.7-6.42-0.08-13.96-0.18-20.59c-0.11-6.83-0.23-13.67-0.34-20.5c-0.13-8.14-0.27-16.27-0.4-24.41
		c-0.14-8.64,6.18-9.43,10.14-9.61C211.9,291.05,212.28,291.04,212.66,291.02z"/>
	<g>
		<path class="st2" d="M259.38,311.6c-0.33-3.04-1.36-6.34-4.01-7.87c-1.53-0.88-3.35-1.03-5.11-1.14
			c-4.12-0.25-8.27-0.39-12.36,0.21c-1.6,0.24-3.24,0.61-4.52,1.59c-2.78,2.12-2.44,7.39-2.18,10.43c4.74,0.1,9.47,0.19,14.21,0.29
			c-0.19,0-0.44,1.93-0.62,2.1c-0.49,0.48-0.93,0.36-1.72,0.41c-1.87,0.12-3.75,0.14-5.63,0.22c-3.75,0.14-7.5,0.29-11.24,0.43
			c-0.94,0.04-1.89,0.07-2.81,0.29c-5.16,1.2-6.87,6.62-6.99,11.28c-0.06,2.37,0.15,4.75,0.67,7.06c0.54,2.4,1.28,4.74,2.38,6.94
			c0.16,0.33,0.34,0.66,0.64,0.87c0.31,0.21,0.7,0.25,1.07,0.29c2.33,0.22,4.66,0.44,7,0.66c0.16,0.02,0.35,0.03,0.47-0.08
			c0.13-0.11,0.15-0.3,0.17-0.47c0.26-3.7-0.58-8.69,1.95-11.79c1.11-1.36,2.79-2.16,4.5-2.52c6.73-1.42,15.48,3.38,21.22-1.8
			c2.85-2.57,3.09-6.88,3.12-10.72c0-0.01,0-0.02,0-0.03C259.6,316.05,259.62,313.82,259.38,311.6z M238.81,311.49
			c-1.25,0-2.27-1.02-2.27-2.27c0-1.25,1.02-2.27,2.27-2.27c1.25,0,2.27,1.02,2.27,2.27C241.08,310.47,240.06,311.49,238.81,311.49z
			"/>
		<path class="st3" d="M269.79,320.5c-0.54-0.23-1.14-0.27-1.73-0.31c-2.36-0.14-4.72-0.28-7.08-0.41
			c0.27,4.62,1.13,10.21-3.65,12.86c-1.89,1.05-4.09,1.41-6.24,1.59c-3.22,0.28-6.46,0.22-9.7,0.15c-2.67-0.06-5.6-0.04-7.66,1.65
			c-2.45,2.01-2.46,4.92-2.62,7.84c-0.19,3.48-0.18,6.97-0.17,10.45c0,1.29,0.02,2.63,0.54,3.81c0.91,2.05,3.14,3.16,5.28,3.84
			c6.15,1.95,18.46,2.94,21.68-4.43c1-2.3,0.75-4.94,0.47-7.43c-4.64-0.19-9.29-0.37-13.93-0.56c0.03-0.72,0.06-1.43,0.09-2.15
			c4.39,0.01,8.78,0.05,13.16,0.14c3.21,0.06,7.81,1.16,10.84-0.06c2.01-0.78,2.99-3.03,3.56-5.11c1.44-5.29,1.52-10.94,0.22-16.26
			c-0.37-1.5-0.85-3-1.69-4.29c-0.31-0.47-0.68-0.93-1.17-1.21C269.94,320.56,269.87,320.53,269.79,320.5z M249.99,353.74
			c1.25,0,2.27,1.02,2.27,2.27c0,1.25-1.02,2.27-2.27,2.27c-1.25,0-2.27-1.02-2.27-2.27C247.71,354.76,248.73,353.74,249.99,353.74z
			"/>
	</g>
</g>
</svg>
