<?xml version="1.0" encoding="utf-8"?>
<!-- Generator: Adobe Illustrator 27.3.1, SVG Export Plug-In . SVG Version: 6.00 Build 0)  -->
<svg version="1.1" id="Layer_1" xmlns:serif="http://www.serif.com/"
	 xmlns="http://www.w3.org/2000/svg" xmlns:xlink="http://www.w3.org/1999/xlink" x="0px" y="0px" viewBox="0 0 174.91 170"
	 style="enable-background:new 0 0 174.91 170;" xml:space="preserve">
<style type="text/css">
	.st0{fill:url(#SVGID_1_);}
	.st1{fill-rule:evenodd;clip-rule:evenodd;fill:#FFFFFF;}
</style>
<g id="WhatsApp-Logo-Icon">
	
		<linearGradient id="SVGID_1_" gradientUnits="userSpaceOnUse" x1="-303.9897" y1="-62.1556" x2="-303.716" y2="-62.1556" gradientTransform="matrix(0 -550 -550 0 -34096.9766 -167032.0156)">
		<stop  offset="0" style="stop-color:#25CF43"/>
		<stop  offset="1" style="stop-color:#61FD7D"/>
	</linearGradient>
	<path class="st0" d="M47.52,11.81c-3.31,0.15-7.67,0.45-9.63,0.9c-3.01,0.6-5.87,1.51-8.13,2.71c-2.86,1.35-5.26,3.16-7.37,5.26
		c-2.25,2.25-4.06,4.66-5.42,7.53c-1.2,2.25-2.11,5.12-2.71,8.13c-0.45,1.95-0.75,6.32-0.75,9.63c-0.16,1.36-0.16,3.16-0.16,4.07
		v74.05v4.06c0.15,3.31,0.45,7.67,0.9,9.63c0.6,3.01,1.51,5.87,2.71,8.13c1.35,2.86,3.16,5.26,5.26,7.37
		c2.25,2.25,4.66,4.06,7.53,5.42c2.25,1.2,5.12,2.11,8.13,2.71c1.95,0.45,6.32,0.76,9.63,0.76c1.36,0.15,3.16,0.15,4.07,0.15h74.05
		h4.06c3.31-0.15,7.67-0.45,9.63-0.9c3.01-0.6,5.87-1.51,8.13-2.71c2.86-1.36,5.26-3.16,7.37-5.26c2.25-2.25,4.06-4.66,5.42-7.53
		c1.2-2.25,2.11-5.12,2.71-8.13c0.45-1.95,0.76-6.32,0.76-9.63c0.15-1.35,0.15-3.16,0.15-4.06V45.97c-0.15-3.31-0.45-7.67-0.9-9.63
		c-0.6-3.01-1.51-5.87-2.71-8.13c-1.36-2.86-3.16-5.26-5.26-7.37c-2.25-2.25-4.66-4.06-7.53-5.42c-2.25-1.2-5.12-2.11-8.13-2.71
		c-1.95-0.45-6.32-0.75-9.63-0.75c-1.35-0.15-3.16-0.15-4.06-0.15H47.52L47.52,11.81z"/>
	<path class="st1" d="M114.69,96.96c-1.34-0.67-7.93-3.91-9.16-4.36c-1.23-0.45-2.12-0.67-3.02,0.67c-0.89,1.34-3.46,4.36-4.25,5.25
		c-0.78,0.89-1.57,1.01-2.91,0.33c-1.34-0.67-5.66-2.09-10.78-6.65c-3.98-3.55-6.68-7.94-7.46-9.28s-0.08-2.07,0.59-2.74
		c0.6-0.6,1.34-1.57,2.01-2.35c0.67-0.78,0.89-1.34,1.34-2.24c0.45-0.9,0.22-1.67-0.11-2.35s-3.02-7.27-4.13-9.95
		c-1.09-2.61-2.19-2.26-3.02-2.3c-0.78-0.04-1.67-0.05-2.57-0.05s-2.35,0.33-3.57,1.67c-1.23,1.34-4.69,4.59-4.69,11.18
		c0,6.59,4.81,12.97,5.47,13.86c0.67,0.89,9.45,14.43,22.9,20.23c3.2,1.38,5.7,2.21,7.64,2.82c3.21,1.02,6.13,0.88,8.44,0.53
		c2.58-0.38,7.93-3.24,9.05-6.37c1.12-3.13,1.12-5.81,0.78-6.37C116.93,97.97,116.03,97.64,114.69,96.96 M90.23,130.35h-0.02
		c-8-0.01-15.85-2.15-22.7-6.21l-1.63-0.97l-16.88,4.43l4.5-16.45l-1.06-1.69c-4.46-7.1-6.81-15.3-6.81-23.72
		c0.01-24.58,20.01-44.57,44.61-44.57c11.91,0.01,23.11,4.65,31.52,13.07s13.05,19.63,13.05,31.53
		C134.82,110.35,114.81,130.35,90.23,130.35 M128.18,47.84c-10.13-10.14-23.6-15.72-37.95-15.73c-29.57,0-53.64,24.06-53.65,53.63
		c-0.01,9.45,2.47,18.68,7.16,26.81l-7.61,27.79l28.44-7.46c7.84,4.27,16.66,6.52,25.63,6.53h0.02c29.57,0,53.63-24.06,53.65-53.63
		C143.89,71.44,138.31,57.97,128.18,47.84"/>
</g>
</svg>
